<svg width="34" height="34" viewBox="0 0 34 34" fill="none" xmlns="http://www.w3.org/2000/svg">
<path d="M16.8838 0.998593C11.152 0.983244 6.10806 4.0108 3.22527 8.58474C3.09748 8.78811 3.2403 9.05672 3.47709 9.05672H6.11934C6.29975 9.05672 6.46888 8.97614 6.58164 8.83416C6.84473 8.508 7.12662 8.19335 7.42355 7.89405C8.64883 6.64696 10.0733 5.66463 11.6594 4.98161C13.2981 4.27556 15.0421 3.91487 16.8424 3.91487C18.6428 3.91487 20.3867 4.27173 22.0254 4.98161C23.6115 5.66463 25.036 6.64696 26.2613 7.89405C27.4866 9.14114 28.445 10.5954 29.1178 12.2109C29.8131 13.8839 30.1627 15.6605 30.1627 17.4986C30.1627 19.3366 29.8094 21.1132 29.1178 22.7862C28.4488 24.4017 27.4866 25.856 26.2613 27.1031C25.036 28.3502 23.6115 29.3325 22.0254 30.0155C20.3854 30.7227 18.6227 31.0855 16.8424 31.0823C15.0421 31.0823 13.2981 30.7216 11.6594 30.0155C10.0764 29.3332 8.63795 28.3441 7.42355 27.1031C7.12662 26.7999 6.84849 26.4853 6.58164 26.163C6.46888 26.021 6.29599 25.9404 6.11934 25.9404H3.47709C3.2403 25.9404 3.09372 26.209 3.22527 26.4124C6.1043 30.9748 11.1257 33.9985 16.8424 33.9985C25.7201 33.9985 32.9289 26.704 33.0192 17.6674C33.1094 8.48498 25.8892 1.02162 16.8838 0.998593ZM12.1225 21.7962V18.88H0.320672C0.155296 18.88 0.019989 18.7418 0.019989 18.573V16.4241C0.019989 16.2553 0.155296 16.1172 0.320672 16.1172H12.1225V13.2009C12.1225 12.9438 12.4156 12.798 12.6111 12.9592L17.9444 17.2568C17.9804 17.2855 18.0094 17.3222 18.0294 17.3641C18.0494 17.406 18.0598 17.452 18.0598 17.4986C18.0598 17.5452 18.0494 17.5911 18.0294 17.633C18.0094 17.6749 17.9804 17.7116 17.9444 17.7403L12.6111 22.038C12.4156 22.1953 12.1225 22.0533 12.1225 21.7962Z" fill="#60992D"/>
</svg>
