<svg width="45" height="45" viewBox="0 0 45 45" fill="none" xmlns="http://www.w3.org/2000/svg">
<g clip-path="url(#clip0_52_44)">
<path d="M37.9687 30.9375C35.9831 30.9375 34.1943 31.7615 32.9147 33.0834L13.9753 23.6137C14.0956 22.8761 14.0956 22.1239 13.9753 21.3862L32.9147 11.9165C34.0832 13.1235 35.6451 13.8721 37.3179 14.0271C38.9906 14.182 40.6635 13.7329 42.0338 12.761C43.4041 11.7892 44.3811 10.3589 44.7881 8.72909C45.195 7.09923 45.005 5.37753 44.2524 3.87566C43.4998 2.37379 42.2343 1.19101 40.6851 0.541436C39.1359 -0.108142 37.4053 -0.181586 35.8066 0.334399C34.2079 0.850384 32.8468 1.9217 31.9696 3.3544C31.0925 4.7871 30.7573 6.48651 31.0247 8.14499L12.0853 17.6147C11.1119 16.6071 9.85966 15.9132 8.48925 15.6222C7.11883 15.3311 5.69271 15.456 4.39379 15.981C3.09487 16.5059 1.98238 17.4069 1.19902 18.5684C0.415654 19.73 -0.00286865 21.099 -0.00286865 22.5C-0.00286865 23.901 0.415654 25.27 1.19902 26.4315C1.98238 27.593 3.09487 28.494 4.39379 29.019C5.69271 29.5439 7.11883 29.6689 8.48925 29.3778C9.85966 29.0867 11.1119 28.3929 12.0853 27.3853L31.0247 36.855C30.7968 38.2751 31.01 39.7309 31.6354 41.026C32.2607 42.3212 33.2682 43.3934 34.522 44.0981C35.7758 44.8028 37.2155 45.1061 38.647 44.967C40.0785 44.828 41.433 44.2533 42.5276 43.3204C43.6223 42.3875 44.4046 41.1414 44.769 39.7501C45.1334 38.3588 45.0623 36.8892 44.5654 35.5395C44.0685 34.1898 43.1697 33.025 41.9901 32.2021C40.8105 31.3792 39.407 30.9378 37.9687 30.9375V30.9375Z" fill="#2E2C2F"/>
</g>
<defs>
<clipPath id="clip0_52_44">
<rect width="45" height="45" fill="white"/>
</clipPath>
</defs>
</svg>
