<svg width="45" height="45" viewBox="0 0 45 45" fill="none" xmlns="http://www.w3.org/2000/svg">
<g clip-path="url(#clip0_52_40)">
<path d="M15.9834 31.7306L17.7975 29.1909L15.8091 27.2025L13.2694 29.0166C12.7935 28.7512 12.2886 28.5417 11.7647 28.3922L11.25 25.3125H8.4375L7.92281 28.3922C7.39827 28.5399 6.89316 28.7495 6.41813 29.0166L3.87844 27.2025L1.89 29.1909L3.70406 31.7306C3.43868 32.2065 3.22917 32.7114 3.07969 33.2353L0 33.75V36.5625L3.07969 37.0772C3.22875 37.6059 3.43969 38.1122 3.70406 38.5819L1.89 41.1216L3.87844 43.11L6.41813 41.2959C6.89063 41.5603 7.39406 41.7684 7.92281 41.9203L8.4375 45H11.25L11.7647 41.9203C12.2934 41.7713 12.7997 41.5603 13.2694 41.2959L15.8091 43.11L17.7975 41.1216L15.9834 38.5819C16.2478 38.1094 16.4559 37.6059 16.6078 37.0772L19.6875 36.5653V33.7528L16.6078 33.2381C16.4601 32.7136 16.2505 32.2085 15.9834 31.7334V31.7306ZM9.84375 37.9688C9.09783 37.9688 8.38246 37.6724 7.85501 37.145C7.32757 36.6176 7.03125 35.9022 7.03125 35.1563C7.03125 34.4103 7.32757 33.695 7.85501 33.1675C8.38246 32.6401 9.09783 32.3438 9.84375 32.3438C10.5897 32.3438 11.305 32.6401 11.8325 33.1675C12.3599 33.695 12.6562 34.4103 12.6562 35.1563C12.6562 35.9022 12.3599 36.6176 11.8325 37.145C11.305 37.6724 10.5897 37.9688 9.84375 37.9688ZM45 16.875V14.0625L42.0384 13.5253C41.9851 13.1736 41.9156 12.8245 41.8303 12.4791L44.3588 10.8478L43.2816 8.24907L40.3397 8.8847C40.1546 8.58106 39.9566 8.28547 39.7462 7.99876L41.4591 5.52376L39.4706 3.53532L36.9956 5.24813C36.7082 5.03873 36.4127 4.84076 36.1097 4.6547L36.7453 1.71282L34.1466 0.635635L32.5153 3.16407C32.1696 3.08012 31.8206 3.01069 31.4691 2.95595L30.9319 -0.00561523H28.1194L27.5822 2.95595C27.2278 3.00938 26.8791 3.0797 26.5359 3.16407L24.9047 0.635635L22.3059 1.71282L22.9416 4.6547C22.6379 4.83978 22.3423 5.03778 22.0556 5.24813L19.5806 3.53532L17.5922 5.52376L19.305 7.99876C19.0956 8.28614 18.8976 8.58168 18.7116 8.8847L15.7697 8.24907L14.6925 10.8478L17.2209 12.4791C17.137 12.8248 17.0675 13.1738 17.0128 13.5253L14.0512 14.0625V16.875L17.0128 17.4122C17.0662 17.7666 17.1366 18.1153 17.2209 18.4584L14.6925 20.0897L15.7697 22.6884L18.7116 22.0528C18.8972 22.3566 19.0941 22.6519 19.305 22.9388L17.5922 25.4138L19.5806 27.4022L22.0556 25.6894C22.343 25.8988 22.6385 26.0968 22.9416 26.2828L22.3059 29.2247L24.9047 30.3019L26.5359 27.7734C26.8791 27.8578 27.2278 27.9253 27.5822 27.9816L28.1194 30.9431H30.9319L31.4691 27.9816C31.8234 27.9281 32.1722 27.8578 32.5153 27.7734L34.1466 30.3019L36.7453 29.2247L36.1097 26.2828C36.4134 26.0972 36.7088 25.9003 36.9956 25.6894L39.4706 27.4022L41.4591 25.4138L39.7462 22.9388C39.9557 22.6514 40.1536 22.3558 40.3397 22.0528L43.2816 22.6884L44.3588 20.0897L41.8303 18.4584C41.9143 18.1128 41.9837 17.7637 42.0384 17.4122L45 16.875ZM29.5312 21.5859C27.9089 21.5859 26.3529 20.9415 25.2057 19.7943C24.0586 18.6471 23.4141 17.0911 23.4141 15.4688C23.4141 13.8464 24.0586 12.2905 25.2057 11.1433C26.3529 9.99606 27.9089 9.35157 29.5312 9.35157C31.1536 9.35157 32.7096 9.99606 33.8568 11.1433C35.0039 12.2905 35.6484 13.8464 35.6484 15.4688C35.6484 17.0911 35.0039 18.6471 33.8568 19.7943C32.7096 20.9415 31.1536 21.5859 29.5312 21.5859Z" fill="#2E2C2F"/>
</g>
<defs>
<clipPath id="clip0_52_40">
<rect width="45" height="45" fill="white"/>
</clipPath>
</defs>
</svg>
