<svg width="45" height="45" viewBox="0 0 45 45" fill="none" xmlns="http://www.w3.org/2000/svg">
<path d="M25.5656 3.5374C25.733 3.5374 25.8292 3.54443 25.8292 3.54443H29.5017L29.4827 7.76318H25.8349C23.8275 7.76318 23.8739 9.47735 23.8739 9.47735V16.1655H30.9769L29.9855 20.3786H23.8507V41.4625H19.6362L19.6334 20.3786H14.0344L14.0231 16.1655H19.6355V9.60954C19.6361 3.89313 24.3837 3.53735 25.5656 3.53735V3.5374ZM29.5017 3.54438H29.5087H29.5017ZM25.5656 0.724854C24.5545 0.724854 22.5787 0.892241 20.7069 2.02005C18.9351 3.08599 16.8236 5.26915 16.8236 9.60888V13.3523H14.0237C13.2763 13.3523 12.5598 13.6504 12.0311 14.1792C11.7698 14.4415 11.5629 14.7528 11.4223 15.0952C11.2816 15.4376 11.2099 15.8045 11.2113 16.1747L11.2225 20.3878C11.2282 21.9368 12.486 23.1904 14.035 23.1904H16.8215L16.8243 41.4618C16.8243 43.015 18.0837 44.2743 19.6368 44.2743H23.8514C25.4046 44.2743 26.6639 43.015 26.6639 41.4618V23.1904H29.9862C31.2342 23.1904 32.3331 22.3678 32.6847 21.1704L33.6761 16.9572C33.9257 16.1072 33.7597 15.1882 33.2282 14.4801C32.9667 14.13 32.627 13.8457 32.2363 13.6499C31.8456 13.4541 31.4145 13.3522 30.9775 13.3523H26.687V10.5771L29.4833 10.5757C31.0309 10.5757 32.2888 9.32482 32.2958 7.77583L32.3148 3.69982C32.3176 3.64807 32.319 3.59625 32.319 3.54443C32.319 1.99123 31.0626 0.731929 29.5094 0.731929H25.9087C25.8278 0.72771 25.7111 0.724897 25.5656 0.724854Z" fill="#969696"/>
</svg>
