<svg width="64" height="64" viewBox="0 0 64 64" fill="none" xmlns="http://www.w3.org/2000/svg">
<path d="M54.7 32.7L36.7 50.7C36.6091 50.7937 36.5003 50.8683 36.3801 50.9192C36.2598 50.9701 36.1306 50.9963 36 50.9963C35.8694 50.9963 35.7402 50.9701 35.6199 50.9192C35.4997 50.8683 35.3909 50.7937 35.3 50.7C35.2063 50.6091 35.1317 50.5003 35.0808 50.38C35.0299 50.2598 35.0037 50.1306 35.0037 50C35.0037 49.8694 35.0299 49.7402 35.0808 49.6199C35.1317 49.4997 35.2063 49.3909 35.3 49.3L51.575 33H10C9.73478 33 9.48043 32.8946 9.29289 32.7071C9.10536 32.5196 9 32.2652 9 32C9 31.7348 9.10536 31.4804 9.29289 31.2929C9.48043 31.1053 9.73478 31 10 31H51.575L35.3 14.7C35.1556 14.5074 35.0855 14.2692 35.1025 14.0291C35.1196 13.789 35.2227 13.5631 35.3929 13.3929C35.5631 13.2227 35.789 13.1196 36.0291 13.1025C36.2692 13.0854 36.5074 13.1555 36.7 13.3L54.7 31.3C54.7937 31.3909 54.8683 31.4997 54.9192 31.6199C54.9701 31.7402 54.9963 31.8694 54.9963 32C54.9963 32.1306 54.9701 32.2598 54.9192 32.38C54.8683 32.5003 54.7937 32.6091 54.7 32.7Z" fill="#60992D"/>
</svg>
