<svg width="50" height="50" viewBox="0 0 50 50" fill="none" xmlns="http://www.w3.org/2000/svg">
<path d="M3.125 25C3.125 29.3265 4.40795 33.5558 6.8116 37.1531C9.21526 40.7504 12.6317 43.5542 16.6288 45.2099C20.6259 46.8655 25.0243 47.2987 29.2676 46.4547C33.5109 45.6106 37.4087 43.5272 40.468 40.468C43.5272 37.4087 45.6106 33.5109 46.4547 29.2676C47.2987 25.0243 46.8655 20.6259 45.2099 16.6288C43.5542 12.6317 40.7504 9.21526 37.1531 6.8116C33.5558 4.40795 29.3265 3.125 25 3.125C19.1984 3.125 13.6344 5.42968 9.53204 9.53204C5.42968 13.6344 3.125 19.1984 3.125 25ZM12.5 23.4375H31.4844L22.7656 14.6766L25 12.5L37.5 25L25 37.5L22.7656 35.2703L31.4844 26.5625H12.5V23.4375Z" fill="#60992D"/>
</svg>
