<svg width="45" height="45" viewBox="0 0 45 45" fill="none" xmlns="http://www.w3.org/2000/svg">
<path d="M22.4561 0.175781C28.5205 0.175781 29.2676 0.219727 31.6406 0.307617C33.9697 0.395508 35.5957 0.791016 37.0459 1.3623C38.54 1.93359 39.7705 2.68066 41.001 3.91113C42.2314 5.1416 42.9785 6.37207 43.5498 7.86621C44.1211 9.31641 44.5166 10.9424 44.6045 13.2715C44.6924 15.6445 44.7363 16.3916 44.7363 22.4561C44.7363 28.5205 44.6924 29.2676 44.6045 31.6406C44.5166 33.9697 44.1211 35.5957 43.5498 37.0459C42.9785 38.54 42.2314 39.7705 41.001 41.001C39.7705 42.2314 38.54 42.9785 37.0459 43.5498C35.5957 44.1211 33.9697 44.5166 31.6406 44.6045C29.2676 44.6924 28.5205 44.7363 22.4561 44.7363C16.3916 44.7363 15.6445 44.6924 13.2715 44.6045C10.9424 44.5166 9.31641 44.1211 7.86621 43.5498C6.37207 42.9785 5.1416 42.2314 3.91113 41.001C2.68066 39.7705 1.93359 38.54 1.3623 37.0459C0.791016 35.5957 0.395508 33.9697 0.307617 31.6406C0.219727 29.2676 0.175781 28.5205 0.175781 22.4561C0.175781 16.3916 0.219727 15.6445 0.307617 13.2715C0.395508 10.9424 0.791016 9.31641 1.3623 7.86621C1.93359 6.37207 2.68066 5.1416 3.91113 3.91113C5.1416 2.68066 6.37207 1.93359 7.86621 1.3623C9.31641 0.791016 10.9424 0.395508 13.2715 0.307617C15.6445 0.219727 16.3916 0.175781 22.4561 0.175781ZM22.4561 3.07617C16.1279 3.07617 15.3809 3.12012 12.9199 3.20801C10.6348 3.2959 9.36035 3.73535 8.52539 4.04297C6.37207 4.92188 4.92188 6.37207 4.04297 8.52539C3.73535 9.36035 3.2959 10.6348 3.20801 12.9199C3.12012 15.3809 3.07617 16.1279 3.07617 22.4561C3.07617 28.7842 3.12012 29.5312 3.20801 31.9922C3.2959 34.2773 3.73535 35.5518 4.04297 36.3867C4.92188 38.54 6.37207 39.9902 8.52539 40.8691C9.36035 41.1768 10.6348 41.6162 12.9199 41.7041C15.3809 41.792 16.1279 41.8359 22.4561 41.8359C28.7842 41.8359 29.5312 41.792 31.9922 41.7041C34.2773 41.6162 35.5518 41.1768 36.3867 40.8691C38.54 39.9902 39.9902 38.54 40.8691 36.3867C41.1768 35.5518 41.6162 34.2773 41.7041 31.9922C41.792 29.5312 41.8359 28.7842 41.8359 22.4561C41.8359 16.1279 41.792 15.3809 41.7041 12.9199C41.6162 10.6348 41.1768 9.36035 40.8691 8.52539C39.9902 6.37207 38.54 4.92188 36.3867 4.04297C35.5518 3.73535 34.2773 3.2959 31.9922 3.20801C29.5312 3.12012 28.7842 3.07617 22.4561 3.07617ZM22.4561 31.377C27.3779 31.377 31.377 27.3779 31.377 22.4561C31.377 17.5342 27.3779 13.5352 22.4561 13.5352C17.5342 13.5352 13.5352 17.5342 13.5352 22.4561C13.5352 27.3779 17.5342 31.377 22.4561 31.377ZM22.4561 11.0303C28.7842 11.0303 33.8818 16.1279 33.8818 22.4561C33.8818 28.7842 28.7842 33.8818 22.4561 33.8818C16.1279 33.8818 11.0303 28.7842 11.0303 22.4561C11.0303 16.1279 16.1279 11.0303 22.4561 11.0303ZM37.0459 10.5908C37.0459 12.085 35.8154 13.2275 34.3213 13.2275C32.8271 13.2275 31.6846 12.085 31.6846 10.5908C31.6846 9.09668 32.8271 7.86621 34.3213 7.86621C35.8154 7.86621 37.0459 9.09668 37.0459 10.5908Z" fill="#969696"/>
</svg>
