<svg width="41" height="41" viewBox="0 0 41 41" fill="none" xmlns="http://www.w3.org/2000/svg">
<path fill-rule="evenodd" clip-rule="evenodd" d="M20.4167 38.4166C30.3577 38.4166 38.4167 30.3576 38.4167 20.4166C38.4167 10.4756 30.3577 2.41662 20.4167 2.41662C10.4757 2.41662 2.41669 10.4756 2.41669 20.4166C2.41669 30.3576 10.4757 38.4166 20.4167 38.4166ZM20.4167 40.4166C31.4627 40.4166 40.4167 31.4626 40.4167 20.4166C40.4167 9.37061 31.4627 0.416626 20.4167 0.416626C9.37069 0.416626 0.416687 9.37061 0.416687 20.4166C0.416687 31.4626 9.37069 40.4166 20.4167 40.4166Z" fill="#60992D"/>
<path d="M8.41669 32.0465C8.41669 31.0135 9.18869 30.1405 10.2167 30.0265C17.9317 29.1725 22.9367 29.2495 30.6347 30.0455C31.0191 30.0859 31.3834 30.2373 31.6832 30.4813C31.9829 30.7254 32.2052 31.0514 32.3227 31.4196C32.4402 31.7879 32.4479 32.1823 32.3449 32.5549C32.2419 32.9274 32.0327 33.2619 31.7427 33.5175C22.6577 41.4365 17.4657 41.3275 9.05669 33.5255C8.64669 33.1455 8.41669 32.6055 8.41669 32.0475V32.0465Z" fill="#60992D"/>
<path fill-rule="evenodd" clip-rule="evenodd" d="M30.5317 31.0395C22.8947 30.2495 17.9617 30.1755 10.3257 31.0205C10.0743 31.0498 9.84261 31.1708 9.67489 31.3603C9.50717 31.5498 9.41524 31.7945 9.41669 32.0475C9.41669 32.3335 9.53569 32.6045 9.73669 32.7925C13.9047 36.6585 17.0627 38.4055 20.1497 38.4165C23.2477 38.4275 26.5757 36.6945 31.0857 32.7645C31.229 32.637 31.3321 32.4706 31.3826 32.2855C31.4331 32.1005 31.4287 31.9048 31.37 31.7221C31.3113 31.5395 31.2009 31.3779 31.052 31.2569C30.9032 31.1359 30.7224 31.0607 30.5317 31.0405V31.0395ZM10.1067 29.0325C17.9027 28.1695 22.9807 28.2475 30.7387 29.0505C31.317 29.1109 31.8651 29.3386 32.3161 29.7057C32.767 30.0728 33.101 30.5634 33.2774 31.1174C33.4538 31.6715 33.4648 32.2649 33.3091 32.8251C33.1534 33.3853 32.8377 33.888 32.4007 34.2715C27.8257 38.2595 24.0157 40.4315 20.1437 40.4165C16.2607 40.4025 12.6187 38.1935 8.37769 34.2585C8.07405 33.9757 7.83199 33.6333 7.66664 33.2527C7.50129 32.8721 7.4162 32.4615 7.41669 32.0465C7.41523 31.301 7.6889 30.5811 8.18526 30.0247C8.68162 29.4684 9.36578 29.1148 10.1067 29.0315V29.0325Z" fill="#60992D"/>
<path d="M28.4167 16.4166C28.4167 18.5383 27.5738 20.5732 26.0735 22.0735C24.5733 23.5737 22.5384 24.4166 20.4167 24.4166C18.295 24.4166 16.2601 23.5737 14.7598 22.0735C13.2595 20.5732 12.4167 18.5383 12.4167 16.4166C12.4167 14.2949 13.2595 12.2601 14.7598 10.7598C16.2601 9.25948 18.295 8.41663 20.4167 8.41663C22.5384 8.41663 24.5733 9.25948 26.0735 10.7598C27.5738 12.2601 28.4167 14.2949 28.4167 16.4166V16.4166Z" fill="#60992D"/>
<path fill-rule="evenodd" clip-rule="evenodd" d="M20.4167 22.4166C22.008 22.4166 23.5341 21.7845 24.6593 20.6592C25.7845 19.534 26.4167 18.0079 26.4167 16.4166C26.4167 14.8253 25.7845 13.2992 24.6593 12.174C23.5341 11.0488 22.008 10.4166 20.4167 10.4166C18.8254 10.4166 17.2993 11.0488 16.174 12.174C15.0488 13.2992 14.4167 14.8253 14.4167 16.4166C14.4167 18.0079 15.0488 19.534 16.174 20.6592C17.2993 21.7845 18.8254 22.4166 20.4167 22.4166V22.4166ZM20.4167 24.4166C22.5384 24.4166 24.5733 23.5737 26.0735 22.0735C27.5738 20.5732 28.4167 18.5383 28.4167 16.4166C28.4167 14.2949 27.5738 12.2601 26.0735 10.7598C24.5733 9.25948 22.5384 8.41663 20.4167 8.41663C18.295 8.41663 16.2601 9.25948 14.7598 10.7598C13.2595 12.2601 12.4167 14.2949 12.4167 16.4166C12.4167 18.5383 13.2595 20.5732 14.7598 22.0735C16.2601 23.5737 18.295 24.4166 20.4167 24.4166V24.4166Z" fill="#60992D"/>
</svg>
