<svg width="45" height="37" viewBox="0 0 45 37" fill="none" xmlns="http://www.w3.org/2000/svg">
<path d="M30.0762 2.9737C32.4 2.9737 34.498 3.9245 35.976 5.45098C37.8146 5.0952 39.5478 4.44692 41.1053 3.54903C40.5027 5.37861 39.2209 6.91348 37.5539 7.8845C39.1851 7.69255 40.7468 7.27348 42.1959 6.647C41.1096 8.21778 39.742 9.60083 38.1628 10.7061C38.1775 11.0415 38.186 11.3804 38.186 11.7179C38.186 22.077 30.0558 34.0252 15.1889 34.0252C10.6256 34.0252 6.37524 32.723 2.80059 30.4998C3.44008 30.5741 4.08336 30.6112 4.72716 30.6108C8.51348 30.6108 12.0002 29.3585 14.767 27.2534C11.2282 27.1929 8.24133 24.9239 7.21688 21.8112C7.71861 21.9052 8.22798 21.9525 8.73844 21.9525C9.47321 21.9525 10.189 21.8576 10.8654 21.6776C7.16836 20.9597 4.38188 17.7907 4.38188 13.9903V13.8898C5.47242 14.4776 6.71766 14.8305 8.04445 14.8713C5.87461 13.4636 4.44797 11.0674 4.44797 8.34698C4.44797 6.90909 4.84739 5.5619 5.54278 4.40808C9.52809 9.14854 15.4836 12.2704 22.2019 12.5988C22.0634 12.0264 21.9917 11.4217 21.9917 10.8135C21.9917 6.483 25.6106 2.9737 30.0762 2.9737ZM42.1958 6.64845H42.2028H42.1958ZM30.076 0.161377C24.5537 0.161377 19.9786 4.19595 19.274 9.40892C14.7557 8.50118 10.6467 6.10915 7.69425 2.59986C7.43032 2.28589 7.10091 2.03346 6.7291 1.86026C6.3573 1.68706 5.95211 1.59729 5.54195 1.59725C5.46829 1.59726 5.39465 1.60008 5.32121 1.60568C4.8754 1.64139 4.4445 1.7827 4.06413 2.01794C3.68376 2.25318 3.36486 2.57558 3.13379 2.9585C2.15326 4.58544 1.63519 6.44907 1.63538 8.34865C1.63538 9.61638 1.86315 10.8511 2.29491 12.0056C1.83507 12.5168 1.56999 13.1854 1.56999 13.8914V13.9919C1.56999 16.7468 2.65913 19.3033 4.46757 21.2193C4.36351 21.7017 4.38671 22.2065 4.54562 22.6903C5.16933 24.588 6.30488 26.2235 7.77722 27.4693C6.78859 27.6895 5.7684 27.8006 4.72702 27.8006C4.17648 27.8006 3.6407 27.7703 3.13374 27.7084C3.02124 27.6943 2.91015 27.6894 2.79835 27.6894C1.6171 27.6894 0.544836 28.434 0.146867 29.5696C-0.289773 30.8141 0.194724 32.1936 1.31405 32.8904C5.46816 35.4752 10.2662 36.8399 15.1881 36.8399C31.1856 36.8399 40.8086 24.3165 40.9956 12.0836C42.3084 10.9975 43.468 9.73872 44.443 8.34153C44.8133 7.85536 45.0134 7.26092 45.0126 6.64981C45.0126 5.69286 44.5338 4.847 43.8046 4.3386C44.1203 3.25649 43.7603 2.08508 42.8814 1.3693C42.3681 0.951645 41.7388 0.739302 41.106 0.739302C40.6128 0.738839 40.1282 0.868602 39.7012 1.11547C38.7716 1.6513 37.7774 2.07528 36.7305 2.38048C34.8362 0.955249 32.4878 0.161421 30.076 0.161377Z" fill="#969696"/>
</svg>
