<svg width="195" height="134" viewBox="0 0 195 134" fill="none" xmlns="http://www.w3.org/2000/svg">
<path d="M20.041 71.441C14.4877 71.441 10.2573 69.873 7.35 66.737C4.44267 63.601 2.989 59.2727 2.989 53.752C2.989 50.0933 3.64233 46.941 4.949 44.295C6.25567 41.649 8.134 39.6073 10.584 38.17C13.034 36.7327 15.9903 36.014 19.453 36.014C21.511 36.014 23.5037 36.308 25.431 36.896C27.3583 37.4513 29.0733 38.3497 30.576 39.591C31.0333 39.9177 31.2947 40.326 31.36 40.816C31.4253 41.2733 31.3273 41.7143 31.066 42.139C30.8373 42.531 30.4943 42.7923 30.037 42.923C29.6123 43.0537 29.155 42.9557 28.665 42.629C27.3257 41.5837 25.9047 40.8323 24.402 40.375C22.8993 39.885 21.2333 39.64 19.404 39.64C15.484 39.64 12.4787 40.8813 10.388 43.364C8.29733 45.814 7.252 49.2767 7.252 53.752C7.252 58.3253 8.33 61.8207 10.486 64.238C12.642 66.6553 15.8597 67.864 20.139 67.864C22.9157 67.864 25.578 67.3903 28.126 66.443V56.202H21.119C19.943 56.202 19.355 55.663 19.355 54.585C19.355 53.5397 19.943 53.017 21.119 53.017H29.89C31.0333 53.017 31.605 53.5887 31.605 54.732V67.521C31.605 68.5337 31.2457 69.187 30.527 69.481C29.155 70.069 27.5053 70.5427 25.578 70.902C23.6833 71.2613 21.8377 71.441 20.041 71.441ZM54.3207 71.441C51.1194 71.441 48.3264 70.7223 45.9417 69.285C43.5897 67.815 41.7604 65.757 40.4537 63.111C39.1797 60.465 38.5427 57.329 38.5427 53.703C38.5427 50.077 39.1797 46.941 40.4537 44.295C41.7277 41.649 43.5407 39.6073 45.8927 38.17C48.2774 36.7327 51.0867 36.014 54.3207 36.014C57.5874 36.014 60.3967 36.7327 62.7487 38.17C65.1334 39.6073 66.9627 41.649 68.2367 44.295C69.5434 46.9083 70.1967 50.028 70.1967 53.654C70.1967 57.28 69.5434 60.4323 68.2367 63.111C66.93 65.757 65.0844 67.815 62.6997 69.285C60.3477 70.7223 57.5547 71.441 54.3207 71.441ZM54.3207 67.864C58.012 67.864 60.8704 66.6227 62.8957 64.14C64.921 61.6573 65.9337 58.1783 65.9337 53.703C65.9337 49.2277 64.921 45.765 62.8957 43.315C60.8704 40.8323 58.012 39.591 54.3207 39.591C50.6947 39.591 47.869 40.8323 45.8437 43.315C43.8184 45.765 42.8057 49.2277 42.8057 53.703C42.8057 58.1457 43.8184 61.6247 45.8437 64.14C47.869 66.6227 50.6947 67.864 54.3207 67.864ZM91.8842 71.441C88.6829 71.441 85.8899 70.7223 83.5052 69.285C81.1532 67.815 79.3239 65.757 78.0172 63.111C76.7432 60.465 76.1062 57.329 76.1062 53.703C76.1062 50.077 76.7432 46.941 78.0172 44.295C79.2912 41.649 81.1042 39.6073 83.4562 38.17C85.8409 36.7327 88.6502 36.014 91.8842 36.014C95.1509 36.014 97.9602 36.7327 100.312 38.17C102.697 39.6073 104.526 41.649 105.8 44.295C107.107 46.9083 107.76 50.028 107.76 53.654C107.76 57.28 107.107 60.4323 105.8 63.111C104.494 65.757 102.648 67.815 100.263 69.285C97.9112 70.7223 95.1182 71.441 91.8842 71.441ZM91.8842 67.864C95.5755 67.864 98.4339 66.6227 100.459 64.14C102.485 61.6573 103.497 58.1783 103.497 53.703C103.497 49.2277 102.485 45.765 100.459 43.315C98.4339 40.8323 95.5755 39.591 91.8842 39.591C88.2582 39.591 85.4325 40.8323 83.4072 43.315C81.3819 45.765 80.3692 49.2277 80.3692 53.703C80.3692 58.1457 81.3819 61.6247 83.4072 64.14C85.4325 66.6227 88.2582 67.864 91.8842 67.864Z" fill="#2E2C2F"/>
<path d="M18.5489 115.336C17.1409 115.336 16.4369 114.616 16.4369 113.176V83.32C16.4369 81.88 17.1569 81.16 18.5969 81.16H36.0209C37.1409 81.16 37.7009 81.704 37.7009 82.792C37.7009 83.912 37.1409 84.472 36.0209 84.472H20.3729V96.28H35.0129C36.1649 96.28 36.7409 96.824 36.7409 97.912C36.7409 99.032 36.1649 99.592 35.0129 99.592H20.3729V113.176C20.3729 114.616 19.7649 115.336 18.5489 115.336ZM56.1449 115.432C53.0089 115.432 50.2729 114.728 47.9369 113.32C45.6329 111.88 43.8409 109.864 42.5609 107.272C41.3129 104.68 40.6889 101.608 40.6889 98.056C40.6889 94.504 41.3129 91.432 42.5609 88.84C43.8089 86.248 45.5849 84.248 47.8889 82.84C50.2249 81.432 52.9769 80.728 56.1449 80.728C59.3449 80.728 62.0969 81.432 64.4009 82.84C66.7369 84.248 68.5289 86.248 69.7769 88.84C71.0569 91.4 71.6969 94.456 71.6969 98.008C71.6969 101.56 71.0569 104.648 69.7769 107.272C68.4969 109.864 66.6889 111.88 64.3529 113.32C62.0489 114.728 59.3129 115.432 56.1449 115.432ZM56.1449 111.928C59.7609 111.928 62.5609 110.712 64.5449 108.28C66.5289 105.848 67.5209 102.44 67.5209 98.056C67.5209 93.672 66.5289 90.28 64.5449 87.88C62.5609 85.448 59.7609 84.232 56.1449 84.232C52.5929 84.232 49.8249 85.448 47.8409 87.88C45.8569 90.28 44.8649 93.672 44.8649 98.056C44.8649 102.408 45.8569 105.816 47.8409 108.28C49.8249 110.712 52.5929 111.928 56.1449 111.928ZM92.9417 115.432C89.8057 115.432 87.0697 114.728 84.7337 113.32C82.4297 111.88 80.6377 109.864 79.3577 107.272C78.1097 104.68 77.4857 101.608 77.4857 98.056C77.4857 94.504 78.1097 91.432 79.3577 88.84C80.6057 86.248 82.3817 84.248 84.6857 82.84C87.0217 81.432 89.7737 80.728 92.9417 80.728C96.1417 80.728 98.8937 81.432 101.198 82.84C103.534 84.248 105.326 86.248 106.574 88.84C107.854 91.4 108.494 94.456 108.494 98.008C108.494 101.56 107.854 104.648 106.574 107.272C105.294 109.864 103.486 111.88 101.15 113.32C98.8457 114.728 96.1097 115.432 92.9417 115.432ZM92.9417 111.928C96.5577 111.928 99.3577 110.712 101.342 108.28C103.326 105.848 104.318 102.44 104.318 98.056C104.318 93.672 103.326 90.28 101.342 87.88C99.3577 85.448 96.5577 84.232 92.9417 84.232C89.3897 84.232 86.6217 85.448 84.6377 87.88C82.6537 90.28 81.6617 93.672 81.6617 98.056C81.6617 102.408 82.6537 105.816 84.6377 108.28C86.6217 110.712 89.3897 111.928 92.9417 111.928Z" fill="#2E2C2F"/>
<path d="M124.364 115C121.78 115 120.488 113.67 120.488 111.01V38.62C120.488 35.96 121.78 34.63 124.364 34.63H146.366C159.134 34.63 168.976 38.05 175.892 44.89C182.884 51.73 186.38 61.686 186.38 74.758C186.38 87.83 182.884 97.824 175.892 104.74C168.976 111.58 159.134 115 146.366 115H124.364ZM127.442 108.844H145.796C167.836 108.844 178.856 97.482 178.856 74.758C178.856 52.11 167.836 40.786 145.796 40.786H127.442V108.844Z" fill="#60992D"/>
</svg>
